# xmcd
#
# Track frame offsets: 
#        150
#        20844
#        39427
#        59680
#        80164
#        102754
#        122382
#        140484
#        155970
#        169220
#        187771
#        204644
#        221985
#        238704
#        260808
#        278408
#        294184
#        319582
#        340213
#
# Disc length: 4751 seconds
#
# Revision: 4
# Processed by: cddbd v1.5.2PL0 Copyright (c) Steve Scherf et al.
# Submitted via: ExactAudioCopy v1.3
#
DISCID=22128d13
DTITLE=Various Artist - Alligator Records 40th anniversary collection CD1
DYEAR=2011
DGENRE=Blues
TTITLE0=Koko Taylor - I'm A Woman
TTITLE1=Albert Collins - I Ain't Drunk
TTITLE2=Michael Burks - Strange Feeling
TTITLE3=Tommy Castro - Backup Plan
TTITLE4=Lil' Ed and The Blues Imperials - Icicles In My Meatloaf
TTITLE5=Guitar Shorty - We The People
TTITLE6=Rick Estrin and The Nightcats - U B U
TTITLE7=Marcia Ball - The Party's Still Going On
TTITLE8=Roomful of Blues - That's A Pretty Good Love
TTITLE9=Smokin' Joe Kubek - Have Blues, Will Travel
TTITLE10=Son Seals - Going Home (Where Women Got meat On Their Bones)
TTITLE11=Buddy Guy - Give Me My Coat And Shoes
TTITLE12=Janiva Magness - Slipped, Tripped, and Fell In Love
TTITLE13=Johnny Winter - Mojo Boogie
TTITLE14=Coco Montoya - Last Dirty Deal
TTITLE15=Corey Harris - Fish Ain't Bitin'
TTITLE16=Luther Allison - All The King's Horses
TTITLE17=Anders Osborne - Echoes Of My Sins
TTITLE18=Lonnie Mack - Double Whammy
EXTD=
EXTT0=
EXTT1=
EXTT2=
EXTT3=
EXTT4=
EXTT5=
EXTT6=
EXTT7=
EXTT8=
EXTT9=
EXTT10=
EXTT11=
EXTT12=
EXTT13=
EXTT14=
EXTT15=
EXTT16=
EXTT17=
EXTT18=
PLAYORDER=
